<mxfile host="drawio-plugin" modified="2024-02-22T11:37:09.321Z" agent="5.0 (Macintosh; Intel Mac OS X 10_15_7) AppleWebKit/537.36 (KHTML, like Gecko) Chrome/104.0.5112.102 Safari/537.36" version="20.5.3" etag="n5i0ve7afpMOUiGwIG87" type="embed"><diagram id="tLt3qgOCOTDDJ0dN47ie" name="Page-1"><mxGraphModel dx="1006" dy="905" grid="1" gridSize="10" guides="1" tooltips="1" connect="1" arrows="1" fold="1" page="1" pageScale="1" pageWidth="827" pageHeight="1169" math="0" shadow="0"><root><mxCell id="0"/><mxCell id="1" parent="0"/><mxCell id="tuDf67kU34TCIpuFOlyh-1" value="" style="rounded=0;whiteSpace=wrap;html=1;fillColor=none;strokeWidth=2;" parent="1" vertex="1"><mxGeometry x="154.12" y="120" width="620" height="790" as="geometry"/></mxCell><mxCell id="tuDf67kU34TCIpuFOlyh-22" value="" style="rounded=1;whiteSpace=wrap;html=1;strokeWidth=2;" parent="1" vertex="1"><mxGeometry x="490" y="385" width="190" height="120" as="geometry"/></mxCell><mxCell id="tuDf67kU34TCIpuFOlyh-35" style="edgeStyle=orthogonalEdgeStyle;rounded=0;orthogonalLoop=1;jettySize=auto;html=1;exitX=0;exitY=0.5;exitDx=0;exitDy=0;entryX=1;entryY=0.5;entryDx=0;entryDy=0;strokeWidth=2;" parent="1" source="tuDf67kU34TCIpuFOlyh-10" target="tuDf67kU34TCIpuFOlyh-34" edge="1"><mxGeometry relative="1" as="geometry"/></mxCell><mxCell id="tuDf67kU34TCIpuFOlyh-10" value="" style="rounded=1;whiteSpace=wrap;html=1;fillColor=#99FF99;strokeWidth=2;" parent="1" vertex="1"><mxGeometry x="410.78" y="720" width="190" height="120" as="geometry"/></mxCell><mxCell id="tuDf67kU34TCIpuFOlyh-13" value="" style="shape=image;verticalLabelPosition=bottom;labelBackgroundColor=default;verticalAlign=top;aspect=fixed;imageAspect=0;image=https://bgasparotto.com/wp-content/uploads/2017/12/spring-boot-logo.png;" parent="1" vertex="1"><mxGeometry x="430.78999999999996" y="750" width="66.66" height="35" as="geometry"/></mxCell><mxCell id="tuDf67kU34TCIpuFOlyh-14" value="" style="shape=image;verticalLabelPosition=bottom;labelBackgroundColor=default;verticalAlign=top;aspect=fixed;imageAspect=0;image=https://www.tanaakk.com/wp-content/uploads/2021/11/Moby-logo.png;" parent="1" vertex="1"><mxGeometry x="530.79" y="740" width="55.78" height="40" as="geometry"/></mxCell><mxCell id="tuDf67kU34TCIpuFOlyh-28" style="edgeStyle=orthogonalEdgeStyle;rounded=0;orthogonalLoop=1;jettySize=auto;html=1;exitX=0;exitY=0.5;exitDx=0;exitDy=0;entryX=0.5;entryY=0;entryDx=0;entryDy=0;strokeWidth=2;" parent="1" source="tuDf67kU34TCIpuFOlyh-15" target="tuDf67kU34TCIpuFOlyh-21" edge="1"><mxGeometry relative="1" as="geometry"/></mxCell><mxCell id="tuDf67kU34TCIpuFOlyh-15" value="" style="rounded=1;whiteSpace=wrap;html=1;fillColor=#99FF99;strokeWidth=2;" parent="1" vertex="1"><mxGeometry x="391.28000000000003" y="205" width="190" height="120" as="geometry"/></mxCell><mxCell id="tuDf67kU34TCIpuFOlyh-16" value="" style="shape=image;verticalLabelPosition=bottom;labelBackgroundColor=default;verticalAlign=top;aspect=fixed;imageAspect=0;image=https://bgasparotto.com/wp-content/uploads/2017/12/spring-boot-logo.png;" parent="1" vertex="1"><mxGeometry x="416.29" y="230" width="66.66" height="35" as="geometry"/></mxCell><mxCell id="tuDf67kU34TCIpuFOlyh-17" value="" style="shape=image;verticalLabelPosition=bottom;labelBackgroundColor=default;verticalAlign=top;aspect=fixed;imageAspect=0;image=https://www.tanaakk.com/wp-content/uploads/2021/11/Moby-logo.png;" parent="1" vertex="1"><mxGeometry x="511.28999999999996" y="225" width="55.78" height="40" as="geometry"/></mxCell><mxCell id="tuDf67kU34TCIpuFOlyh-18" value="&lt;font style=&quot;font-size: 16px;&quot;&gt;car-web-service&lt;/font&gt;" style="text;html=1;align=center;verticalAlign=middle;resizable=0;points=[];autosize=1;strokeColor=none;fillColor=none;" parent="1" vertex="1"><mxGeometry x="435.78999999999996" y="790" width="140" height="30" as="geometry"/></mxCell><mxCell id="tuDf67kU34TCIpuFOlyh-19" value="&lt;font style=&quot;font-size: 16px;&quot;&gt;car-position-producer&lt;/font&gt;" style="text;html=1;align=center;verticalAlign=middle;resizable=0;points=[];autosize=1;strokeColor=none;fillColor=none;" parent="1" vertex="1"><mxGeometry x="401.29" y="275" width="170" height="30" as="geometry"/></mxCell><mxCell id="tuDf67kU34TCIpuFOlyh-20" value="&lt;b&gt;&lt;font style=&quot;font-size: 20px;&quot;&gt;Docker Network&lt;/font&gt;&lt;/b&gt;" style="text;html=1;align=center;verticalAlign=middle;resizable=0;points=[];autosize=1;strokeColor=none;fillColor=none;" parent="1" vertex="1"><mxGeometry x="374.11999999999995" y="120" width="180" height="40" as="geometry"/></mxCell><mxCell id="tuDf67kU34TCIpuFOlyh-29" style="edgeStyle=orthogonalEdgeStyle;rounded=0;orthogonalLoop=1;jettySize=auto;html=1;exitX=0.5;exitY=1;exitDx=0;exitDy=0;entryX=0;entryY=0.5;entryDx=0;entryDy=0;strokeWidth=2;" parent="1" source="tuDf67kU34TCIpuFOlyh-21" target="tuDf67kU34TCIpuFOlyh-26" edge="1"><mxGeometry relative="1" as="geometry"/></mxCell><mxCell id="tuDf67kU34TCIpuFOlyh-31" style="edgeStyle=orthogonalEdgeStyle;rounded=0;orthogonalLoop=1;jettySize=auto;html=1;exitX=1;exitY=0.5;exitDx=0;exitDy=0;entryX=0;entryY=0.5;entryDx=0;entryDy=0;startArrow=classic;startFill=1;strokeWidth=2;" parent="1" source="tuDf67kU34TCIpuFOlyh-21" target="tuDf67kU34TCIpuFOlyh-22" edge="1"><mxGeometry relative="1" as="geometry"/></mxCell><mxCell id="tuDf67kU34TCIpuFOlyh-21" value="" style="rounded=1;whiteSpace=wrap;html=1;strokeWidth=2;" parent="1" vertex="1"><mxGeometry x="220" y="385" width="190" height="120" as="geometry"/></mxCell><mxCell id="tuDf67kU34TCIpuFOlyh-4" value="" style="shape=image;verticalLabelPosition=bottom;labelBackgroundColor=default;verticalAlign=top;aspect=fixed;imageAspect=0;image=https://upload.wikimedia.org/wikipedia/commons/thumb/5/53/Apache_kafka_wordtype.svg/1280px-Apache_kafka_wordtype.svg.png;" parent="1" vertex="1"><mxGeometry x="231.27999999999997" y="415" width="160" height="80" as="geometry"/></mxCell><mxCell id="tuDf67kU34TCIpuFOlyh-5" value="" style="shape=image;verticalLabelPosition=bottom;labelBackgroundColor=default;verticalAlign=top;aspect=fixed;imageAspect=0;image=https://upload.wikimedia.org/wikipedia/commons/7/77/Apache_ZooKeeper_logo.svg;" parent="1" vertex="1"><mxGeometry x="501.27" y="404.45000000000005" width="167.46" height="90.55" as="geometry"/></mxCell><mxCell id="tuDf67kU34TCIpuFOlyh-23" value="" style="shape=image;verticalLabelPosition=bottom;labelBackgroundColor=default;verticalAlign=top;aspect=fixed;imageAspect=0;image=https://www.tanaakk.com/wp-content/uploads/2021/11/Moby-logo.png;" parent="1" vertex="1"><mxGeometry x="339.21999999999997" y="395" width="55.78" height="40" as="geometry"/></mxCell><mxCell id="tuDf67kU34TCIpuFOlyh-24" value="" style="shape=image;verticalLabelPosition=bottom;labelBackgroundColor=default;verticalAlign=top;aspect=fixed;imageAspect=0;image=https://www.tanaakk.com/wp-content/uploads/2021/11/Moby-logo.png;" parent="1" vertex="1"><mxGeometry x="609.22" y="395" width="55.78" height="40" as="geometry"/></mxCell><mxCell id="tuDf67kU34TCIpuFOlyh-30" style="edgeStyle=orthogonalEdgeStyle;rounded=0;orthogonalLoop=1;jettySize=auto;html=1;exitX=0.5;exitY=1;exitDx=0;exitDy=0;entryX=0.5;entryY=0;entryDx=0;entryDy=0;strokeWidth=2;" parent="1" source="tuDf67kU34TCIpuFOlyh-26" target="tuDf67kU34TCIpuFOlyh-10" edge="1"><mxGeometry relative="1" as="geometry"/></mxCell><mxCell id="tuDf67kU34TCIpuFOlyh-26" value="" style="rounded=1;whiteSpace=wrap;html=1;strokeWidth=2;" parent="1" vertex="1"><mxGeometry x="410" y="555" width="190" height="120" as="geometry"/></mxCell><mxCell id="tuDf67kU34TCIpuFOlyh-25" value="" style="shape=image;verticalLabelPosition=bottom;labelBackgroundColor=default;verticalAlign=top;aspect=fixed;imageAspect=0;image=https://cdn.worldvectorlogo.com/logos/mongodb-icon-2.svg;" parent="1" vertex="1"><mxGeometry x="430.01" y="560" width="110" height="110" as="geometry"/></mxCell><mxCell id="tuDf67kU34TCIpuFOlyh-27" value="" style="shape=image;verticalLabelPosition=bottom;labelBackgroundColor=default;verticalAlign=top;aspect=fixed;imageAspect=0;image=https://www.tanaakk.com/wp-content/uploads/2021/11/Moby-logo.png;" parent="1" vertex="1"><mxGeometry x="530.01" y="575" width="55.78" height="40" as="geometry"/></mxCell><mxCell id="tuDf67kU34TCIpuFOlyh-33" style="edgeStyle=orthogonalEdgeStyle;rounded=0;orthogonalLoop=1;jettySize=auto;html=1;exitX=1;exitY=0.5;exitDx=0;exitDy=0;entryX=0;entryY=0.25;entryDx=0;entryDy=0;strokeWidth=2;" parent="1" source="tuDf67kU34TCIpuFOlyh-32" target="tuDf67kU34TCIpuFOlyh-15" edge="1"><mxGeometry relative="1" as="geometry"/></mxCell><mxCell id="tuDf67kU34TCIpuFOlyh-32" value="&lt;b&gt;Client&lt;/b&gt;" style="ellipse;whiteSpace=wrap;html=1;aspect=fixed;strokeWidth=2;" parent="1" vertex="1"><mxGeometry x="30" y="195" width="80" height="80" as="geometry"/></mxCell><mxCell id="tuDf67kU34TCIpuFOlyh-34" value="&lt;b&gt;Client&lt;/b&gt;" style="ellipse;whiteSpace=wrap;html=1;aspect=fixed;strokeWidth=2;" parent="1" vertex="1"><mxGeometry x="40" y="740" width="80" height="80" as="geometry"/></mxCell></root></mxGraphModel></diagram></mxfile>